<?xml version="1.0" encoding="utf-8"?>
<svg version="1.1" xmlns:xlink="http://www.w3.org/1999/xlink" width="300px" height="170px" xmlns="http://www.w3.org/2000/svg">
  <g transform="matrix(1 0 0 1 -810 -1362 )">
    <path d="M 810 1362  L 1110 1362  L 1110 1532  L 810 1532  L 810 1362  " fill-rule="nonzero" fill="#cccccc" stroke="none" />
    <path d="M 822 1374  L 1098 1374  L 1098 1520  L 822 1520  L 822 1374  " fill-rule="nonzero" fill="#ffffff" stroke="none" />
    <path d="M 978.75 1413  C 971.61 1413  966 1407.39  966 1400.25  C 966 1393.11  971.61 1387.5  978.75 1387.5  C 985.89 1387.5  991.5 1393.11  991.5 1400.25  C 991.5 1407.39  985.89 1413  978.75 1413  " fill-rule="nonzero" fill="#cccccc" stroke="none" />
    <path d="M 827 1516  L 827 1440.65  L 893.75 1406.4  L 987.2 1469.42  L 1040.6 1426.95  L 1094 1469.42  L 1094 1516  L 827 1516  " fill-rule="nonzero" fill="#169bd5" stroke="none" />
  </g>
</svg>