<?xml version="1.0" encoding="utf-8"?>
<svg version="1.1" xmlns:xlink="http://www.w3.org/1999/xlink" width="20px" height="20px" xmlns="http://www.w3.org/2000/svg">
  <g transform="matrix(1 0 0 1 -259 -575 )">
    <path d="M 12.3567708333333 12.3567708333333  C 13.0078125 11.7057291666667  13.3333333333333 10.9201388888889  13.3333333333333 10  C 13.3333333333333 9.07986111111111  13.0078125 8.29427083333333  12.3567708333333 7.64322916666667  C 11.7057291666667 6.9921875  10.9201388888889 6.66666666666667  10 6.66666666666667  C 9.07986111111111 6.66666666666667  8.29427083333333 6.9921875  7.64322916666667 7.64322916666667  C 6.9921875 8.29427083333333  6.66666666666667 9.07986111111111  6.66666666666667 10  C 6.66666666666667 10.9201388888889  6.9921875 11.7057291666667  7.64322916666667 12.3567708333333  C 8.29427083333333 13.0078125  9.07986111111111 13.3333333333333  10 13.3333333333333  C 10.9201388888889 13.3333333333333  11.7057291666667 13.0078125  12.3567708333333 12.3567708333333  Z M 13.6328125 6.3671875  C 14.6310763888889 7.36545138888889  15.1302083333333 8.57638888888889  15.1302083333333 10  C 15.1302083333333 11.4236111111111  14.6310763888889 12.6345486111111  13.6328125 13.6328125  C 12.6345486111111 14.6310763888889  11.4236111111111 15.1302083333333  10 15.1302083333333  C 8.57638888888889 15.1302083333333  7.36545138888889 14.6310763888889  6.3671875 13.6328125  C 5.36892361111111 12.6345486111111  4.86979166666667 11.4236111111111  4.86979166666667 10  C 4.86979166666667 8.57638888888889  5.36892361111111 7.36545138888889  6.3671875 6.3671875  C 7.36545138888889 5.36892361111111  8.57638888888889 4.86979166666667  10 4.86979166666667  C 11.4236111111111 4.86979166666667  12.6345486111111 5.36892361111111  13.6328125 6.3671875  Z M 16.1848958333333 3.81510416666667  C 16.4192708333333 4.04947916666667  16.5364583333333 4.33159722222222  16.5364583333333 4.66145833333333  C 16.5364583333333 4.99131944444444  16.4192708333333 5.2734375  16.1848958333333 5.5078125  C 15.9505208333333 5.7421875  15.6684027777778 5.859375  15.3385416666667 5.859375  C 15.0086805555556 5.859375  14.7265625 5.7421875  14.4921875 5.5078125  C 14.2578125 5.2734375  14.140625 4.99131944444444  14.140625 4.66145833333333  C 14.140625 4.33159722222222  14.2578125 4.04947916666667  14.4921875 3.81510416666667  C 14.7265625 3.58072916666667  15.0086805555556 3.46354166666667  15.3385416666667 3.46354166666667  C 15.6684027777778 3.46354166666667  15.9505208333333 3.58072916666667  16.1848958333333 3.81510416666667  Z M 10.99609375 1.79036458333333  C 10.3927951388889 1.79470486111111  10.0607638888889 1.796875  10 1.796875  C 9.93923611111111 1.796875  9.60720486111111 1.79470486111111  9.00390625 1.79036458333333  C 8.40060763888889 1.78602430555555  7.94270833333333 1.78602430555555  7.63020833333333 1.79036458333333  C 7.31770833333333 1.79470486111111  6.89887152777778 1.80772569444444  6.37369791666667 1.82942708333333  C 5.84852430555556 1.85112847222222  5.40147569444445 1.89453125  5.03255208333333 1.95963541666667  C 4.66362847222222 2.02473958333333  4.35329861111111 2.10503472222222  4.1015625 2.20052083333333  C 3.66753472222222 2.37413194444444  3.28559027777778 2.62586805555555  2.95572916666667 2.95572916666667  C 2.62586805555556 3.28559027777778  2.37413194444444 3.66753472222222  2.20052083333333 4.1015625  C 2.10503472222222 4.35329861111111  2.02473958333333 4.66362847222222  1.95963541666667 5.03255208333333  C 1.89453125 5.40147569444444  1.85112847222222 5.84852430555555  1.82942708333333 6.37369791666667  C 1.80772569444444 6.89887152777778  1.79470486111111 7.31770833333333  1.79036458333333 7.63020833333333  C 1.78602430555556 7.94270833333333  1.78602430555556 8.40060763888889  1.79036458333333 9.00390625  C 1.79470486111111 9.60720486111111  1.796875 9.93923611111111  1.796875 10  C 1.796875 10.0607638888889  1.79470486111111 10.3927951388889  1.79036458333333 10.99609375  C 1.78602430555556 11.5993923611111  1.78602430555556 12.0572916666667  1.79036458333333 12.3697916666667  C 1.79470486111111 12.6822916666667  1.80772569444444 13.1011284722222  1.82942708333333 13.6263020833333  C 1.85112847222222 14.1514756944444  1.89453125 14.5985243055556  1.95963541666667 14.9674479166667  C 2.02473958333333 15.3363715277778  2.10503472222222 15.6467013888889  2.20052083333333 15.8984375  C 2.37413194444444 16.3324652777778  2.62586805555556 16.7144097222222  2.95572916666667 17.0442708333333  C 3.28559027777778 17.3741319444444  3.66753472222222 17.6258680555556  4.1015625 17.7994791666667  C 4.35329861111111 17.8949652777778  4.66362847222222 17.9752604166667  5.03255208333333 18.0403645833333  C 5.40147569444445 18.10546875  5.84852430555556 18.1488715277778  6.37369791666667 18.1705729166667  C 6.89887152777778 18.1922743055556  7.31770833333333 18.2052951388889  7.63020833333333 18.2096354166667  C 7.94270833333333 18.2139756944444  8.40060763888889 18.2139756944444  9.00390625 18.2096354166667  C 9.60720486111111 18.2052951388889  9.93923611111111 18.203125  10 18.203125  C 10.0607638888889 18.203125  10.3927951388889 18.2052951388889  10.99609375 18.2096354166667  C 11.5993923611111 18.2139756944444  12.0572916666667 18.2139756944444  12.3697916666667 18.2096354166667  C 12.6822916666667 18.2052951388889  13.1011284722222 18.1922743055556  13.6263020833333 18.1705729166667  C 14.1514756944444 18.1488715277778  14.5985243055556 18.10546875  14.9674479166667 18.0403645833333  C 15.3363715277778 17.9752604166667  15.6467013888889 17.8949652777778  15.8984375 17.7994791666667  C 16.3324652777778 17.6258680555556  16.7144097222222 17.3741319444444  17.0442708333333 17.0442708333333  C 17.3741319444444 16.7144097222222  17.6258680555556 16.3324652777778  17.7994791666667 15.8984375  C 17.8949652777778 15.6467013888889  17.9752604166667 15.3363715277778  18.0403645833333 14.9674479166667  C 18.10546875 14.5985243055556  18.1488715277778 14.1514756944444  18.1705729166667 13.6263020833333  C 18.1922743055556 13.1011284722222  18.2052951388889 12.6822916666667  18.2096354166667 12.3697916666667  C 18.2139756944444 12.0572916666667  18.2139756944444 11.5993923611111  18.2096354166667 10.99609375  C 18.2052951388889 10.3927951388889  18.203125 10.0607638888889  18.203125 10  C 18.203125 9.93923611111111  18.2052951388889 9.60720486111111  18.2096354166667 9.00390625  C 18.2139756944444 8.40060763888889  18.2139756944444 7.94270833333333  18.2096354166667 7.63020833333333  C 18.2052951388889 7.31770833333333  18.1922743055556 6.89887152777778  18.1705729166667 6.37369791666667  C 18.1488715277778 5.84852430555555  18.10546875 5.40147569444444  18.0403645833333 5.03255208333333  C 17.9752604166667 4.66362847222222  17.8949652777778 4.35329861111111  17.7994791666667 4.1015625  C 17.6258680555556 3.66753472222222  17.3741319444444 3.28559027777778  17.0442708333333 2.95572916666667  C 16.7144097222222 2.62586805555555  16.3324652777778 2.37413194444444  15.8984375 2.20052083333333  C 15.6467013888889 2.10503472222222  15.3363715277778 2.02473958333333  14.9674479166667 1.95963541666667  C 14.5985243055556 1.89453125  14.1514756944444 1.85112847222222  13.6263020833333 1.82942708333333  C 13.1011284722222 1.80772569444444  12.6822916666667 1.79470486111111  12.3697916666667 1.79036458333333  C 12.0572916666667 1.78602430555555  11.5993923611111 1.78602430555555  10.99609375 1.79036458333333  Z M 19.9348958333333 5.87239583333333  C 19.9782986111111 6.63628472222222  20 8.01215277777778  20 10  C 20 11.9878472222222  19.9782986111111 13.3637152777778  19.9348958333333 14.1276041666667  C 19.8480902777778 15.9331597222222  19.3098958333333 17.3307291666667  18.3203125 18.3203125  C 17.3307291666667 19.3098958333333  15.9331597222222 19.8480902777778  14.1276041666667 19.9348958333333  C 13.3637152777778 19.9782986111111  11.9878472222222 20  10 20  C 8.01215277777778 20  6.63628472222222 19.9782986111111  5.87239583333333 19.9348958333333  C 4.06684027777778 19.8480902777778  2.66927083333333 19.3098958333333  1.6796875 18.3203125  C 0.690104166666667 17.3307291666667  0.151909722222222 15.9331597222222  0.0651041666666667 14.1276041666667  C 0.0217013888888889 13.3637152777778  0 11.9878472222222  0 10  C 0 8.01215277777778  0.0217013888888889 6.63628472222222  0.0651041666666667 5.87239583333333  C 0.151909722222222 4.06684027777778  0.690104166666667 2.66927083333333  1.6796875 1.6796875  C 2.66927083333333 0.690104166666667  4.06684027777778 0.151909722222221  5.87239583333333 0.0651041666666674  C 6.63628472222222 0.0217013888888862  8.01215277777778 0  10 0  C 11.9878472222222 0  13.3637152777778 0.0217013888888862  14.1276041666667 0.0651041666666674  C 15.9331597222222 0.151909722222221  17.3307291666667 0.690104166666667  18.3203125 1.6796875  C 19.3098958333333 2.66927083333333  19.8480902777778 4.06684027777778  19.9348958333333 5.87239583333333  Z " fill-rule="nonzero" fill="#000000" stroke="none" transform="matrix(1 0 0 1 259 575 )" />
  </g>
</svg>