<?xml version="1.0" encoding="utf-8"?>
<svg version="1.1" xmlns:xlink="http://www.w3.org/1999/xlink" width="10px" height="20px" xmlns="http://www.w3.org/2000/svg">
  <g transform="matrix(1 0 0 1 -225 -576 )">
    <path d="M 7.36111111111111 0  C 8.49537037037037 0  9.375 0.0480769230769229  10 0.144230769230769  L 10 3.31730769230769  L 8.18287037037037 3.31730769230769  C 7.51929012345679 3.31730769230769  7.07175925925926 3.46153846153846  6.84027777777778 3.75  C 6.6087962962963 4.03846153846154  6.49305555555556 4.47115384615385  6.49305555555556 5.04807692307692  L 6.49305555555556 7.31971153846154  L 9.88425925925926 7.31971153846154  L 9.43287037037037 10.8774038461538  L 6.49305555555556 10.8774038461538  L 6.49305555555556 20  L 2.95138888888889 20  L 2.95138888888889 10.8774038461538  L 0 10.8774038461538  L 0 7.31971153846154  L 2.95138888888889 7.31971153846154  L 2.95138888888889 4.69951923076923  C 2.95138888888889 3.20913461538461  3.35262345679012 2.05328525641026  4.15509259259259 1.23197115384615  C 4.95756172839506 0.410657051282053  6.02623456790124 0  7.36111111111111 0  Z " fill-rule="nonzero" fill="#000000" stroke="none" transform="matrix(1 0 0 1 225 576 )" />
  </g>
</svg>