<?xml version="1.0" encoding="utf-8"?>
<svg version="1.1" xmlns:xlink="http://www.w3.org/1999/xlink" width="17px" height="17px" xmlns="http://www.w3.org/2000/svg">
  <g transform="matrix(1 0 0 1 -302 -578 )">
    <path d="M 0.210286458333333 5.52384196185286  L 4 5.52384196185286  L 4 17  L 0.210286458333333 17  L 0.210286458333333 5.52384196185286  Z M 3.53059895833333 0.561648501362398  C 3.89952256944444 0.936080835603996  4.08767361111111 1.4089464123524  4.09505208333333 1.98024523160763  C 4.10243055555556 2.54382379654859  3.91612413194444 3.01475930971844  3.5361328125 3.39305177111717  C 3.15614149305556 3.77134423251589  2.65625 3.96049046321526  2.03645833333333 3.96049046321526  L 2.01432291666667 3.96049046321526  C 1.40928819444444 3.96049046321526  0.922309027777778 3.77134423251589  0.553385416666667 3.39305177111717  C 0.184461805555556 3.01475930971844  0 2.54382379654859  0 1.98024523160763  C 0 1.4089464123524  0.189995659722222 0.936080835603996  0.569986979166667 0.561648501362398  C 0.949978298611111 0.187216167120798  1.44618055555556 0  2.05859375 0  C 2.67100694444444 0  3.16167534722222 0.187216167120798  3.53059895833333 0.561648501362398  Z M 15.8489583333333 6.57186648501362  C 16.6163194444444 7.44811534968211  17 8.73160762942779  17 10.4223433242507  L 17 17  L 13.3587239583333 17  L 13.3587239583333 10.8623978201635  C 13.3587239583333 10.0517711171662  13.2093098958333 9.41678019981835  12.9104817708333 8.95742506811989  C 12.6116536458333 8.49806993642143  12.1449652777778 8.26839237057221  11.5104166666667 8.26839237057221  C 11.0455729166667 8.26839237057221  10.6563585069444 8.40156675749319  10.3427734375 8.66791553133515  C 10.0291883680556 8.93426430517711  9.794921875 9.26430517711172  9.63997395833333 9.65803814713897  C 9.55881076388889 9.88964577656676  9.51822916666667 10.2023160762943  9.51822916666667 10.5960490463215  L 9.51822916666667 17  L 5.876953125 17  C 5.89171006944444 13.9196185286104  5.89908854166667 11.4221162579473  5.89908854166667 9.5074931880109  C 5.89908854166667 7.59287011807448  5.89539930555556 6.45027247956403  5.88802083333333 6.07970027247956  L 5.876953125 5.52384196185286  L 9.51822916666667 5.52384196185286  L 9.51822916666667 7.19141689373297  L 9.49609375 7.19141689373297  C 9.64366319444444 6.94436875567666  9.794921875 6.72820163487738  9.94986979166667 6.54291553133515  C 10.1048177083333 6.35762942779292  10.3132595486111 6.15690281562216  10.5751953125 5.94073569482289  C 10.8371310763889 5.72456857402361  11.1580946180556 5.55665304268846  11.5380859375 5.43698910081744  C 11.9180772569444 5.31732515894641  12.3404947916667 5.2574931880109  12.8053385416667 5.2574931880109  C 14.0670572916667 5.2574931880109  15.0815972222222 5.69561762034514  15.8489583333333 6.57186648501362  Z " fill-rule="nonzero" fill="#000000" stroke="none" transform="matrix(1 0 0 1 302 578 )" />
  </g>
</svg>