<?xml version="1.0" encoding="utf-8"?>
<svg version="1.1" xmlns:xlink="http://www.w3.org/1999/xlink" width="15px" height="15px" xmlns="http://www.w3.org/2000/svg">
  <g transform="matrix(1 0 0 1 -303 -594 )">
    <path d="M 0.185546875 4.87397820163488  L 3.408203125 4.87397820163488  L 3.408203125 15  L 0.185546875 15  L 0.185546875 4.87397820163488  Z M 3.115234375 0.495572207084469  C 3.44075520833333 0.825953678474114  3.60677083333333 1.24318801089918  3.61328125 1.74727520435967  C 3.61979166666667 2.24455040871934  3.45540364583333 2.66008174386921  3.1201171875 2.99386920980926  C 2.78483072916667 3.32765667574932  2.34375 3.49455040871935  1.796875 3.49455040871935  L 1.77734375 3.49455040871935  C 1.24348958333333 3.49455040871935  0.813802083333333 3.32765667574932  0.48828125 2.99386920980926  C 0.162760416666667 2.66008174386921  0 2.24455040871934  0 1.74727520435967  C 0 1.24318801089918  0.167643229166667 0.825953678474114  0.5029296875 0.495572207084469  C 0.838216145833333 0.165190735694822  1.27604166666667 0  1.81640625 0  C 2.35677083333333 0  2.78971354166667 0.165190735694822  3.115234375 0.495572207084469  Z M 13.984375 5.79870572207084  C 14.6614583333333 6.57186648501362  15 7.70435967302452  15 9.19618528610354  L 15 15  L 11.787109375 15  L 11.787109375 9.58446866485014  C 11.787109375 8.86920980926431  11.6552734375 8.30892370572207  11.3916015625 7.90361035422343  C 11.1279296875 7.49829700272479  10.7161458333333 7.29564032697548  10.15625 7.29564032697548  C 9.74609375 7.29564032697548  9.40266927083333 7.41314713896458  9.1259765625 7.64816076294278  C 8.84928385416667 7.88317438692098  8.642578125 8.17438692098093  8.505859375 8.52179836512262  C 8.43424479166667 8.72615803814714  8.3984375 9.00204359673025  8.3984375 9.34945504087194  L 8.3984375 15  L 5.185546875 15  C 5.19856770833333 12.2820163487738  5.205078125 10.0783378746594  5.205078125 8.38896457765668  C 5.205078125 6.69959128065395  5.20182291666667 5.69141689373297  5.1953125 5.36444141689373  L 5.185546875 4.87397820163488  L 8.3984375 4.87397820163488  L 8.3984375 6.34536784741144  L 8.37890625 6.34536784741144  C 8.50911458333333 6.12738419618529  8.642578125 5.9366485013624  8.779296875 5.77316076294278  C 8.916015625 5.60967302452316  9.09993489583333 5.43256130790191  9.3310546875 5.24182561307902  C 9.56217447916667 5.05108991825613  9.84537760416667 4.90292915531335  10.1806640625 4.79734332425068  C 10.5159505208333 4.69175749318801  10.888671875 4.63896457765668  11.298828125 4.63896457765668  C 12.412109375 4.63896457765668  13.3072916666667 5.02554495912807  13.984375 5.79870572207084  Z " fill-rule="nonzero" fill="#000000" stroke="none" transform="matrix(1 0 0 1 303 594 )" />
  </g>
</svg>