<?xml version="1.0" encoding="utf-8"?>
<svg version="1.1" xmlns:xlink="http://www.w3.org/1999/xlink" width="17px" height="17px" xmlns="http://www.w3.org/2000/svg">
  <g transform="matrix(1 0 0 1 -355 -8145 )">
    <path d="M 16.3931957612939 0  C 16.5196133110244 0  16.6333891057817 0.0347842261904777  16.7345231455661 0.104352678571429  C 16.9431121026213 0.256138392857143  17.0284439486894 0.458519345238095  16.9905186837702 0.711495535714286  L 14.5633017289459 15.2829241071429  C 14.5316973415133 15.4663318452381  14.4305633017289 15.608630952381  14.2598996095929 15.7098214285714  C 14.1714073247816 15.7604166666667  14.0734337237405 15.7857142857143  13.9659788064696 15.7857142857143  C 13.8964491541179 15.7857142857143  13.8205986242796 15.7699032738095  13.7384272169548 15.73828125  L 9.44339096486336 13.9832589285714  L 7.148912437256 16.7818080357143  C 7.03513664249861 16.9272693452381  6.88027514407883 17  6.68432794199665 17  C 6.60215653467187 17  6.53262688232013 16.9873511904762  6.47573898494144 16.9620535714286  C 6.35564231269753 16.9177827380952  6.25924893102807 16.8434709821429  6.18655883993307 16.7391183035714  C 6.11386874883807 16.634765625  6.07752370329057 16.5193452380952  6.07752370329057 16.3928571428571  L 6.07752370329057 13.08203125  L 14.2693809258226 3.03571428571429  L 4.13385387618516 11.8108258928571  L 0.388733965421082 10.2739955357143  C 0.154861498419781 10.1854538690476  0.0284439486893475 10.0115327380952  0.00948131622978249 9.75223214285714  C -0.00316043874326083 9.49925595238095  0.0979736010410857 9.31268601190476  0.312883435582822 9.19252232142857  L 16.0897936419409 0.0853794642857137  C 16.1846068042387 0.0284598214285706  16.2857408440231 0  16.3931957612939 0  Z " fill-rule="nonzero" fill="#ffffff" stroke="none" transform="matrix(1 0 0 1 355 8145 )" />
  </g>
</svg>