<?xml version="1.0" encoding="utf-8"?>
<svg version="1.1" xmlns:xlink="http://www.w3.org/1999/xlink" width="9px" height="9px" xmlns="http://www.w3.org/2000/svg">
  <g transform="matrix(1 0 0 1 -62 -5171 )">
    <path d="M 8.67875069715561 0  C 8.74567763524819 0  8.80591187953151 0.0184151785714294  8.85945343000558 0.0552455357142861  C 8.96988287785834 0.135602678571429  9.01505856107083 0.242745535714285  8.99498047964306 0.376674107142857  L 7.70998326826548 8.09095982142857  C 7.69325153374233 8.18805803571428  7.63970998326826 8.26339285714286  7.54935861684328 8.31696428571429  C 7.50250976017847 8.34375  7.45064138315672 8.35714285714286  7.39375348577803 8.35714285714286  C 7.35694366982711 8.35714285714286  7.31678750697156 8.34877232142857  7.27328499721138 8.33203125  L 4.9994422755159 7.40290178571428  L 3.78471834913553 8.88448660714286  C 3.7244841048522 8.96149553571428  3.64249860568879 9  3.53876185164529 9  C 3.49525934188511 9  3.45844952593419 8.99330357142857  3.42833240379253 8.97991071428571  C 3.36475181260457 8.95647321428571  3.31372002230898 8.91713169642857  3.27523703290574 8.86188616071429  C 3.23675404350251 8.806640625  3.21751254880089 8.74553571428571  3.21751254880089 8.67857142857143  L 3.21751254880089 6.92578125  L 7.55437813720022 1.60714285714286  L 2.18851087562744 6.25279017857143  L 0.20580033463469 5.43917410714286  C 0.0819854991634133 5.39229910714286  0.015058561070831 5.30022321428571  0.00501952035694367 5.16294642857143  C -0.00167317345231456 5.02901785714286  0.0518683770217512 4.93024553571429  0.165644171779141 4.86662946428572  L 8.51812604573341 0.0452008928571426  C 8.56832124930284 0.0150669642857139  8.62186279977691 0  8.67875069715561 0  Z " fill-rule="nonzero" fill="#ffffff" stroke="none" transform="matrix(1 0 0 1 62 5171 )" />
  </g>
</svg>