<?xml version="1.0" encoding="utf-8"?>
<svg version="1.1" xmlns:xlink="http://www.w3.org/1999/xlink" width="25px" height="25px" xmlns="http://www.w3.org/2000/svg">
  <g transform="matrix(1 0 0 1 -835 -8341 )">
    <path d="M 18.6360677083333 15.2099609375  C 18.6903211805556 15.2587890625  18.7174479166667 15.3211805555556  18.7174479166667 15.3971354166667  L 18.7174479166667 17.1712239583333  C 18.7174479166667 17.7137586805556  18.5194227430556 18.1966145833333  18.1233723958333 18.6197916666667  C 17.7273220486111 19.04296875  17.2173394097222 19.3712022569444  16.5934244791667 19.6044921875  C 15.9695095486111 19.8377821180556  15.3293185763889 20.0141059027778  14.6728515625 20.1334635416667  C 14.0163845486111 20.2528211805556  13.37890625 20.3125  12.7604166666667 20.3125  C 10.5360243055556 20.3125  8.67784288194445 19.5583767361111  7.18587239583333 18.0501302083333  C 5.69390190972222 16.5418836805556  4.94791666666667 14.6647135416667  4.94791666666667 12.4186197916667  C 4.94791666666667 10.2159288194444  5.68576388888889 8.37673611111111  7.16145833333333 6.90104166666667  C 8.63715277777778 5.42534722222222  10.4763454861111 4.6875  12.6790364583333 4.6875  C 13.0479600694444 4.6875  13.4575737847222 4.7119140625  13.9078776041667 4.7607421875  C 14.3581814236111 4.8095703125  14.8627387152778 4.9072265625  15.4215494791667 5.0537109375  C 15.9803602430556 5.2001953125  16.4822048611111 5.38465711805556  16.9270833333333 5.60709635416667  C 17.3719618055556 5.82953559027778  17.7463107638889 6.13606770833333  18.0501302083333 6.52669270833333  C 18.3539496527778 6.91731770833333  18.505859375 7.35677083333333  18.505859375 7.84505208333333  L 18.505859375 9.619140625  C 18.505859375 9.79275173611111  18.4190538194444 9.87955729166667  18.2454427083333 9.87955729166667  L 16.3248697916667 9.87955729166667  C 16.1512586805556 9.87955729166667  16.064453125 9.79275173611111  16.064453125 9.619140625  L 16.064453125 8.47981770833333  C 16.064453125 8.01323784722222  15.7090928819444 7.64702690972222  14.9983723958333 7.38118489583333  C 14.2876519097222 7.11534288194444  13.5416666666667 6.982421875  12.7604166666667 6.982421875  C 11.2413194444444 6.982421875  10.0016276041667 7.47884114583333  9.04134114583333 8.4716796875  C 8.0810546875 9.46451822916667  7.60091145833333 10.7530381944444  7.60091145833333 12.3372395833333  C 7.60091145833333 13.9756944444444  8.09733072916667 15.3293185763889  9.09016927083333 16.3981119791667  C 10.0830078125 17.4669053819444  11.3498263888889 18.0013020833333  12.890625 18.0013020833333  C 13.6284722222222 18.0013020833333  14.3771701388889 17.87109375  15.13671875 17.6106770833333  C 15.8962673611111 17.3502604166667  16.2760416666667 16.9921875  16.2760416666667 16.5364583333333  L 16.2760416666667 15.3971354166667  C 16.2760416666667 15.3211805555556  16.3004557291667 15.2587890625  16.3492838541667 15.2099609375  C 16.3981119791667 15.1611328125  16.455078125 15.13671875  16.5201822916667 15.13671875  L 18.45703125 15.13671875  C 18.5221354166667 15.13671875  18.5818142361111 15.1611328125  18.6360677083333 15.2099609375  Z M 16.5445963541667 2.91341145833333  C 15.2587890625 2.36002604166667  13.9105902777778 2.08333333333333  12.5 2.08333333333333  C 11.0894097222222 2.08333333333333  9.7412109375 2.36002604166667  8.45540364583333 2.91341145833333  C 7.16959635416667 3.466796875  6.06282552083333 4.20735677083333  5.13509114583333 5.13509114583333  C 4.20735677083333 6.06282552083333  3.466796875 7.16959635416667  2.91341145833333 8.45540364583333  C 2.36002604166667 9.7412109375  2.08333333333333 11.0894097222222  2.08333333333333 12.5  C 2.08333333333333 13.9105902777778  2.36002604166667 15.2587890625  2.91341145833333 16.5445963541667  C 3.466796875 17.8304036458333  4.20735677083333 18.9371744791667  5.13509114583333 19.8649088541667  C 6.06282552083333 20.7926432291667  7.16959635416667 21.533203125  8.45540364583333 22.0865885416667  C 9.7412109375 22.6399739583333  11.0894097222222 22.9166666666667  12.5 22.9166666666667  C 13.9105902777778 22.9166666666667  15.2587890625 22.6399739583333  16.5445963541667 22.0865885416667  C 17.8304036458333 21.533203125  18.9371744791667 20.7926432291667  19.8649088541667 19.8649088541667  C 20.7926432291667 18.9371744791667  21.533203125 17.8304036458333  22.0865885416667 16.5445963541667  C 22.6399739583333 15.2587890625  22.9166666666667 13.9105902777778  22.9166666666667 12.5  C 22.9166666666667 11.0894097222222  22.6399739583333 9.7412109375  22.0865885416667 8.45540364583333  C 21.533203125 7.16959635416667  20.7926432291667 6.06282552083333  19.8649088541667 5.13509114583333  C 18.9371744791667 4.20735677083333  17.8304036458333 3.466796875  16.5445963541667 2.91341145833333  Z M 23.3235677083333 6.2255859375  C 24.4411892361111 8.14073350694444  25 10.2322048611111  25 12.5  C 25 14.7677951388889  24.4411892361111 16.8592664930556  23.3235677083333 18.7744140625  C 22.2059461805556 20.6895616319444  20.6895616319444 22.2059461805556  18.7744140625 23.3235677083333  C 16.8592664930556 24.4411892361111  14.7677951388889 25  12.5 25  C 10.2322048611111 25  8.14073350694444 24.4411892361111  6.2255859375 23.3235677083333  C 4.31043836805556 22.2059461805556  2.79405381944444 20.6895616319444  1.67643229166667 18.7744140625  C 0.558810763888889 16.8592664930556  0 14.7677951388889  0 12.5  C 0 10.2322048611111  0.558810763888889 8.14073350694444  1.67643229166667 6.2255859375  C 2.79405381944444 4.31043836805556  4.31043836805556 2.79405381944444  6.2255859375 1.67643229166667  C 8.14073350694444 0.558810763888887  10.2322048611111 0  12.5 0  C 14.7677951388889 0  16.8592664930556 0.558810763888887  18.7744140625 1.67643229166667  C 20.6895616319444 2.79405381944444  22.2059461805556 4.31043836805556  23.3235677083333 6.2255859375  Z " fill-rule="nonzero" fill="#64696d" stroke="none" transform="matrix(1 0 0 1 835 8341 )" />
  </g>
</svg>