<?xml version="1.0" encoding="utf-8"?>
<svg version="1.1" xmlns:xlink="http://www.w3.org/1999/xlink" width="13px" height="13px" xmlns="http://www.w3.org/2000/svg">
  <g transform="matrix(1 0 0 1 -108 -5762 )">
    <path d="M 9.69075520833333 7.9091796875  C 9.71896701388889 7.9345703125  9.73307291666667 7.96701388888889  9.73307291666667 8.00651041666667  L 9.73307291666667 8.92903645833333  C 9.73307291666667 9.21115451388889  9.63009982638889 9.46223958333333  9.42415364583333 9.68229166666667  C 9.21820746527778 9.90234375  8.95301649305556 10.0730251736111  8.62858072916667 10.1943359375  C 8.30414496527778 10.3156467013889  7.97124565972222 10.4073350694444  7.6298828125 10.4694010416667  C 7.28851996527778 10.5314670138889  6.95703125 10.5625  6.63541666666667 10.5625  C 5.47873263888889 10.5625  4.51247829861111 10.1703559027778  3.73665364583333 9.38606770833333  C 2.96082899305556 8.60177951388889  2.57291666666667 7.62565104166667  2.57291666666667 6.45768229166667  C 2.57291666666667 5.31228298611111  2.95659722222222 4.35590277777778  3.72395833333333 3.58854166666667  C 4.49131944444444 2.82118055555555  5.44769965277778 2.4375  6.59309895833333 2.4375  C 6.78493923611111 2.4375  6.99793836805556 2.4501953125  7.23209635416667 2.4755859375  C 7.46625434027778 2.5009765625  7.72862413194444 2.5517578125  8.01920572916667 2.6279296875  C 8.30978732638889 2.7041015625  8.57074652777778 2.80002170138889  8.80208333333333 2.91569010416667  C 9.03342013888889 3.03135850694444  9.22808159722222 3.19075520833333  9.38606770833333 3.39388020833333  C 9.54405381944444 3.59700520833333  9.623046875 3.82552083333333  9.623046875 4.07942708333333  L 9.623046875 5.001953125  C 9.623046875 5.09223090277778  9.57790798611111 5.13736979166667  9.48763020833333 5.13736979166667  L 8.48893229166667 5.13736979166667  C 8.39865451388889 5.13736979166667  8.353515625 5.09223090277778  8.353515625 5.001953125  L 8.353515625 4.40950520833333  C 8.353515625 4.16688368055556  8.16872829861111 3.97645399305555  7.79915364583333 3.83821614583333  C 7.42957899305556 3.69997829861111  7.04166666666667 3.630859375  6.63541666666667 3.630859375  C 5.84548611111111 3.630859375  5.20084635416667 3.88899739583333  4.70149739583333 4.4052734375  C 4.2021484375 4.92154947916667  3.95247395833333 5.59157986111111  3.95247395833333 6.41536458333333  C 3.95247395833333 7.26736111111111  4.21061197916667 7.97124565972222  4.72688802083333 8.52701822916667  C 5.2431640625 9.08279079861111  5.90190972222222 9.36067708333333  6.703125 9.36067708333333  C 7.08680555555556 9.36067708333333  7.47612847222222 9.29296875  7.87109375 9.15755208333333  C 8.26605902777778 9.02213541666667  8.46354166666667 8.8359375  8.46354166666667 8.59895833333333  L 8.46354166666667 8.00651041666667  C 8.46354166666667 7.96701388888889  8.47623697916667 7.9345703125  8.50162760416667 7.9091796875  C 8.52701822916667 7.8837890625  8.556640625 7.87109375  8.59049479166667 7.87109375  L 9.59765625 7.87109375  C 9.63151041666667 7.87109375  9.66254340277778 7.8837890625  9.69075520833333 7.9091796875  Z M 8.60319010416667 1.51497395833333  C 7.9345703125 1.22721354166667  7.23350694444444 1.08333333333333  6.5 1.08333333333333  C 5.76649305555556 1.08333333333333  5.0654296875 1.22721354166667  4.39680989583333 1.51497395833333  C 3.72819010416667 1.802734375  3.15266927083333 2.18782552083333  2.67024739583333 2.67024739583333  C 2.18782552083333 3.15266927083333  1.802734375 3.72819010416667  1.51497395833333 4.39680989583333  C 1.22721354166667 5.0654296875  1.08333333333333 5.76649305555556  1.08333333333333 6.5  C 1.08333333333333 7.23350694444444  1.22721354166667 7.9345703125  1.51497395833333 8.60319010416667  C 1.802734375 9.27180989583333  2.18782552083333 9.84733072916667  2.67024739583333 10.3297526041667  C 3.15266927083333 10.8121744791667  3.72819010416667 11.197265625  4.39680989583333 11.4850260416667  C 5.0654296875 11.7727864583333  5.76649305555556 11.9166666666667  6.5 11.9166666666667  C 7.23350694444444 11.9166666666667  7.9345703125 11.7727864583333  8.60319010416667 11.4850260416667  C 9.27180989583333 11.197265625  9.84733072916667 10.8121744791667  10.3297526041667 10.3297526041667  C 10.8121744791667 9.84733072916667  11.197265625 9.27180989583333  11.4850260416667 8.60319010416667  C 11.7727864583333 7.9345703125  11.9166666666667 7.23350694444444  11.9166666666667 6.5  C 11.9166666666667 5.76649305555556  11.7727864583333 5.0654296875  11.4850260416667 4.39680989583333  C 11.197265625 3.72819010416667  10.8121744791667 3.15266927083333  10.3297526041667 2.67024739583333  C 9.84733072916667 2.18782552083333  9.27180989583333 1.802734375  8.60319010416667 1.51497395833333  Z M 12.1282552083333 3.2373046875  C 12.7094184027778 4.23318142361111  13 5.32074652777778  13 6.5  C 13 7.67925347222222  12.7094184027778 8.76681857638889  12.1282552083333 9.7626953125  C 11.5470920138889 10.7585720486111  10.7585720486111 11.5470920138889  9.7626953125 12.1282552083333  C 8.76681857638889 12.7094184027778  7.67925347222222 13  6.5 13  C 5.32074652777778 13  4.23318142361111 12.7094184027778  3.2373046875 12.1282552083333  C 2.24142795138889 11.5470920138889  1.45290798611111 10.7585720486111  0.871744791666667 9.7626953125  C 0.290581597222222 8.76681857638889  0 7.67925347222222  0 6.5  C 0 5.32074652777778  0.290581597222222 4.23318142361111  0.871744791666667 3.2373046875  C 1.45290798611111 2.24142795138889  2.24142795138889 1.45290798611111  3.2373046875 0.871744791666666  C 4.23318142361111 0.290581597222221  5.32074652777778 0  6.5 0  C 7.67925347222222 0  8.76681857638889 0.290581597222221  9.7626953125 0.871744791666666  C 10.7585720486111 1.45290798611111  11.5470920138889 2.24142795138889  12.1282552083333 3.2373046875  Z " fill-rule="nonzero" fill="#64696d" stroke="none" transform="matrix(1 0 0 1 108 5762 )" />
  </g>
</svg>