<?xml version="1.0" encoding="utf-8"?>
<svg version="1.1" xmlns:xlink="http://www.w3.org/1999/xlink" width="26px" height="26px" xmlns="http://www.w3.org/2000/svg">
  <g transform="matrix(1 0 0 1 -1301 -8126 )">
    <path d="M 16.0638020833333 16.0638020833333  C 16.91015625 15.2174479166667  17.3333333333333 14.1961805555556  17.3333333333333 13  C 17.3333333333333 11.8038194444444  16.91015625 10.7825520833333  16.0638020833333 9.93619791666667  C 15.2174479166667 9.08984375  14.1961805555556 8.66666666666667  13 8.66666666666667  C 11.8038194444444 8.66666666666667  10.7825520833333 9.08984375  9.93619791666667 9.93619791666667  C 9.08984375 10.7825520833333  8.66666666666667 11.8038194444444  8.66666666666667 13  C 8.66666666666667 14.1961805555556  9.08984375 15.2174479166667  9.93619791666667 16.0638020833333  C 10.7825520833333 16.91015625  11.8038194444444 17.3333333333333  13 17.3333333333333  C 14.1961805555556 17.3333333333333  15.2174479166667 16.91015625  16.0638020833333 16.0638020833333  Z M 17.72265625 8.27734375  C 19.0203993055556 9.57508680555555  19.6692708333333 11.1493055555556  19.6692708333333 13  C 19.6692708333333 14.8506944444444  19.0203993055556 16.4249131944444  17.72265625 17.72265625  C 16.4249131944444 19.0203993055556  14.8506944444444 19.6692708333333  13 19.6692708333333  C 11.1493055555556 19.6692708333333  9.57508680555556 19.0203993055556  8.27734375 17.72265625  C 6.97960069444444 16.4249131944444  6.33072916666667 14.8506944444444  6.33072916666667 13  C 6.33072916666667 11.1493055555556  6.97960069444444 9.57508680555555  8.27734375 8.27734375  C 9.57508680555556 6.97960069444444  11.1493055555556 6.33072916666667  13 6.33072916666667  C 14.8506944444444 6.33072916666667  16.4249131944444 6.97960069444444  17.72265625 8.27734375  Z M 21.0403645833333 4.95963541666667  C 21.3450520833333 5.26432291666667  21.4973958333333 5.63107638888889  21.4973958333333 6.05989583333333  C 21.4973958333333 6.48871527777778  21.3450520833333 6.85546875  21.0403645833333 7.16015625  C 20.7356770833333 7.46484375  20.3689236111111 7.6171875  19.9401041666667 7.6171875  C 19.5112847222222 7.6171875  19.14453125 7.46484375  18.83984375 7.16015625  C 18.53515625 6.85546875  18.3828125 6.48871527777778  18.3828125 6.05989583333333  C 18.3828125 5.63107638888889  18.53515625 5.26432291666667  18.83984375 4.95963541666667  C 19.14453125 4.65494791666667  19.5112847222222 4.50260416666667  19.9401041666667 4.50260416666667  C 20.3689236111111 4.50260416666667  20.7356770833333 4.65494791666667  21.0403645833333 4.95963541666667  Z M 14.294921875 2.32747395833333  C 13.5106336805556 2.33311631944444  13.0789930555556 2.3359375  13 2.3359375  C 12.9210069444444 2.3359375  12.4893663194444 2.33311631944444  11.705078125 2.32747395833333  C 10.9207899305556 2.32183159722222  10.3255208333333 2.32183159722222  9.91927083333333 2.32747395833333  C 9.51302083333333 2.33311631944444  8.96853298611111 2.35004340277778  8.28580729166667 2.37825520833333  C 7.60308159722222 2.40646701388889  7.02191840277778 2.462890625  6.54231770833333 2.54752604166667  C 6.06271701388889 2.63216145833333  5.65928819444444 2.73654513888889  5.33203125 2.86067708333333  C 4.76779513888889 3.08637152777778  4.27126736111111 3.41362847222222  3.84244791666667 3.84244791666667  C 3.41362847222222 4.27126736111111  3.08637152777778 4.76779513888889  2.86067708333333 5.33203125  C 2.73654513888889 5.65928819444444  2.63216145833333 6.06271701388889  2.54752604166667 6.54231770833333  C 2.462890625 7.02191840277778  2.40646701388889 7.60308159722222  2.37825520833333 8.28580729166667  C 2.35004340277778 8.96853298611111  2.33311631944444 9.51302083333333  2.32747395833333 9.91927083333333  C 2.32183159722222 10.3255208333333  2.32183159722222 10.9207899305556  2.32747395833333 11.705078125  C 2.33311631944444 12.4893663194444  2.3359375 12.9210069444444  2.3359375 13  C 2.3359375 13.0789930555556  2.33311631944444 13.5106336805556  2.32747395833333 14.294921875  C 2.32183159722222 15.0792100694444  2.32183159722222 15.6744791666667  2.32747395833333 16.0807291666667  C 2.33311631944444 16.4869791666667  2.35004340277778 17.0314670138889  2.37825520833333 17.7141927083333  C 2.40646701388889 18.3969184027778  2.462890625 18.9780815972222  2.54752604166667 19.4576822916667  C 2.63216145833333 19.9372829861111  2.73654513888889 20.3407118055556  2.86067708333333 20.66796875  C 3.08637152777778 21.2322048611111  3.41362847222222 21.7287326388889  3.84244791666667 22.1575520833333  C 4.27126736111111 22.5863715277778  4.76779513888889 22.9136284722222  5.33203125 23.1393229166667  C 5.65928819444444 23.2634548611111  6.06271701388889 23.3678385416667  6.54231770833333 23.4524739583333  C 7.02191840277778 23.537109375  7.60308159722222 23.5935329861111  8.28580729166667 23.6217447916667  C 8.96853298611111 23.6499565972222  9.51302083333333 23.6668836805556  9.91927083333333 23.6725260416667  C 10.3255208333333 23.6781684027778  10.9207899305556 23.6781684027778  11.705078125 23.6725260416667  C 12.4893663194444 23.6668836805556  12.9210069444444 23.6640625  13 23.6640625  C 13.0789930555556 23.6640625  13.5106336805556 23.6668836805556  14.294921875 23.6725260416667  C 15.0792100694444 23.6781684027778  15.6744791666667 23.6781684027778  16.0807291666667 23.6725260416667  C 16.4869791666667 23.6668836805556  17.0314670138889 23.6499565972222  17.7141927083333 23.6217447916667  C 18.3969184027778 23.5935329861111  18.9780815972222 23.537109375  19.4576822916667 23.4524739583333  C 19.9372829861111 23.3678385416667  20.3407118055556 23.2634548611111  20.66796875 23.1393229166667  C 21.2322048611111 22.9136284722222  21.7287326388889 22.5863715277778  22.1575520833333 22.1575520833333  C 22.5863715277778 21.7287326388889  22.9136284722222 21.2322048611111  23.1393229166667 20.66796875  C 23.2634548611111 20.3407118055556  23.3678385416667 19.9372829861111  23.4524739583333 19.4576822916667  C 23.537109375 18.9780815972222  23.5935329861111 18.3969184027778  23.6217447916667 17.7141927083333  C 23.6499565972222 17.0314670138889  23.6668836805556 16.4869791666667  23.6725260416667 16.0807291666667  C 23.6781684027778 15.6744791666667  23.6781684027778 15.0792100694444  23.6725260416667 14.294921875  C 23.6668836805556 13.5106336805556  23.6640625 13.0789930555556  23.6640625 13  C 23.6640625 12.9210069444444  23.6668836805556 12.4893663194444  23.6725260416667 11.705078125  C 23.6781684027778 10.9207899305556  23.6781684027778 10.3255208333333  23.6725260416667 9.91927083333333  C 23.6668836805556 9.51302083333333  23.6499565972222 8.96853298611111  23.6217447916667 8.28580729166667  C 23.5935329861111 7.60308159722222  23.537109375 7.02191840277778  23.4524739583333 6.54231770833333  C 23.3678385416667 6.06271701388889  23.2634548611111 5.65928819444444  23.1393229166667 5.33203125  C 22.9136284722222 4.76779513888889  22.5863715277778 4.27126736111111  22.1575520833333 3.84244791666667  C 21.7287326388889 3.41362847222222  21.2322048611111 3.08637152777778  20.66796875 2.86067708333333  C 20.3407118055556 2.73654513888889  19.9372829861111 2.63216145833333  19.4576822916667 2.54752604166667  C 18.9780815972222 2.462890625  18.3969184027778 2.40646701388889  17.7141927083333 2.37825520833333  C 17.0314670138889 2.35004340277778  16.4869791666667 2.33311631944444  16.0807291666667 2.32747395833333  C 15.6744791666667 2.32183159722222  15.0792100694444 2.32183159722222  14.294921875 2.32747395833333  Z M 25.9153645833333 7.63411458333333  C 25.9717881944444 8.62717013888889  26 10.4157986111111  26 13  C 26 15.5842013888889  25.9717881944444 17.3728298611111  25.9153645833333 18.3658854166667  C 25.8025173611111 20.7131076388889  25.1028645833333 22.5299479166667  23.81640625 23.81640625  C 22.5299479166667 25.1028645833333  20.7131076388889 25.8025173611111  18.3658854166667 25.9153645833333  C 17.3728298611111 25.9717881944444  15.5842013888889 26  13 26  C 10.4157986111111 26  8.62717013888889 25.9717881944444  7.63411458333333 25.9153645833333  C 5.28689236111111 25.8025173611111  3.47005208333333 25.1028645833333  2.18359375 23.81640625  C 0.897135416666667 22.5299479166667  0.197482638888889 20.7131076388889  0.0846354166666667 18.3658854166667  C 0.0282118055555556 17.3728298611111  0 15.5842013888889  0 13  C 0 10.4157986111111  0.0282118055555556 8.62717013888889  0.0846354166666667 7.63411458333333  C 0.197482638888889 5.28689236111111  0.897135416666667 3.47005208333333  2.18359375 2.18359375  C 3.47005208333333 0.897135416666668  5.28689236111111 0.197482638888887  7.63411458333333 0.0846354166666676  C 8.62717013888889 0.028211805555552  10.4157986111111 0  13 0  C 15.5842013888889 0  17.3728298611111 0.028211805555552  18.3658854166667 0.0846354166666676  C 20.7131076388889 0.197482638888887  22.5299479166667 0.897135416666668  23.81640625 2.18359375  C 25.1028645833333 3.47005208333333  25.8025173611111 5.28689236111111  25.9153645833333 7.63411458333333  Z " fill-rule="nonzero" fill="#000000" stroke="none" transform="matrix(1 0 0 1 1301 8126 )" />
  </g>
</svg>