<?xml version="1.0" encoding="utf-8"?>
<svg version="1.1" xmlns:xlink="http://www.w3.org/1999/xlink" width="13px" height="26px" xmlns="http://www.w3.org/2000/svg">
  <g transform="matrix(1 0 0 1 -1256 -8127 )">
    <path d="M 9.56944444444444 0  C 11.0439814814815 0  12.1875 0.0624999999999998  13 0.187499999999999  L 13 4.3125  L 10.6377314814815 4.3125  C 9.77507716049383 4.3125  9.19328703703704 4.5  8.89236111111111 4.875  C 8.59143518518519 5.25  8.44097222222222 5.8125  8.44097222222222 6.5625  L 8.44097222222222 9.515625  L 12.849537037037 9.515625  L 12.2627314814815 14.140625  L 8.44097222222222 14.140625  L 8.44097222222222 26  L 4 26  L 4 14.140625  L 0 14.140625  L 0 9.515625  L 3.83680555555556 9.515625  L 3.83680555555556 6.109375  C 3.83680555555556 4.171875  4.35841049382716 2.66927083333333  5.40162037037037 1.6015625  C 6.44483024691358 0.533854166666669  7.83410493827161 0  9.56944444444444 0  Z " fill-rule="nonzero" fill="#000000" stroke="none" transform="matrix(1 0 0 1 1256 8127 )" />
  </g>
</svg>