<?xml version="1.0" encoding="utf-8"?>
<svg version="1.1" xmlns:xlink="http://www.w3.org/1999/xlink" width="22px" height="22px" xmlns="http://www.w3.org/2000/svg">
  <g transform="matrix(1 0 0 1 -1358 -8129 )">
    <path d="M 0.272135416666667 7.14850136239782  L 5 7.14850136239782  L 5 22  L 0.272135416666667 22  L 0.272135416666667 7.14850136239782  Z M 4.56901041666667 0.726839237057221  C 5.04644097222222 1.2113987284287  5.28993055555556 1.82334241598546  5.29947916666667 2.56267029972752  C 5.30902777777778 3.29200726612171  5.06792534722222 3.90145322434151  4.576171875 4.39100817438692  C 4.08441840277778 4.88056312443233  3.4375 5.12534059945504  2.63541666666667 5.12534059945504  L 2.60677083333333 5.12534059945504  C 1.82378472222222 5.12534059945504  1.19357638888889 4.88056312443233  0.716145833333333 4.39100817438692  C 0.238715277777778 3.90145322434151  0 3.29200726612171  0 2.56267029972752  C 0 1.82334241598546  0.245876736111111 1.2113987284287  0.737630208333333 0.726839237057221  C 1.22938368055556 0.242279745685739  1.87152777777778 0  2.6640625 0  C 3.45659722222222 0  4.09157986111111 0.242279745685739  4.56901041666667 0.726839237057221  Z M 20.5104166666667 8.50476839237057  C 21.5034722222222 9.63873751135331  22 11.299727520436  22 13.4877384196185  L 22 22  L 17.2877604166667 22  L 17.2877604166667 14.0572207084469  C 17.2877604166667 13.008174386921  17.0944010416667 12.186421435059  16.7076822916667 11.591961852861  C 16.3209635416667 10.997502270663  15.7170138888889 10.700272479564  14.8958333333333 10.700272479564  C 14.2942708333333 10.700272479564  13.7905815972222 10.8726158038147  13.384765625 11.2173024523161  C 12.9789496527778 11.5619891008174  12.67578125 11.9891008174387  12.4752604166667 12.4986376021798  C 12.3702256944444 12.7983651226158  12.3177083333333 13.2029972752044  12.3177083333333 13.7125340599455  L 12.3177083333333 22  L 7.60546875 22  C 7.62456597222222 18.0136239782016  7.63411458333333 14.7815622161671  7.63411458333333 12.3038147138965  C 7.63411458333333 9.82606721162579  7.62934027777778 8.34741144414169  7.61979166666667 7.86784741144414  L 7.60546875 7.14850136239782  L 12.3177083333333 7.14850136239782  L 12.3177083333333 9.30653950953678  L 12.2890625 9.30653950953678  C 12.4800347222222 8.98683015440509  12.67578125 8.70708446866485  12.8763020833333 8.46730245231608  C 13.0768229166667 8.2275204359673  13.3465711805556 7.9677565849228  13.685546875 7.68801089918256  C 14.0245225694444 7.40826521344232  14.4398871527778 7.19096276112625  14.931640625 7.03610354223433  C 15.4233940972222 6.88124432334242  15.9700520833333 6.80381471389646  16.5716145833333 6.80381471389646  C 18.2044270833333 6.80381471389646  19.5173611111111 7.37079927338783  20.5104166666667 8.50476839237057  Z " fill-rule="nonzero" fill="#000000" stroke="none" transform="matrix(1 0 0 1 1358 8129 )" />
  </g>
</svg>